<?xml version="1.0" encoding="UTF-8" standalone="no"?>
<!-- Created with Inkscape (http://www.inkscape.org/) -->

<svg
   xmlns:dc="http://purl.org/dc/elements/1.1/"
   xmlns:cc="http://creativecommons.org/ns#"
   xmlns:rdf="http://www.w3.org/1999/02/22-rdf-syntax-ns#"
   xmlns:svg="http://www.w3.org/2000/svg"
   xmlns="http://www.w3.org/2000/svg"
   xmlns:xlink="http://www.w3.org/1999/xlink"
   xmlns:sodipodi="http://sodipodi.sourceforge.net/DTD/sodipodi-0.dtd"
   xmlns:inkscape="http://www.inkscape.org/namespaces/inkscape"
   width="256"
   height="256"
   viewBox="0 0 67.733332 67.733335"
   version="1.1"
   id="svg8"
   inkscape:version="0.92.3 (2405546, 2018-03-11)"
   sodipodi:docname="bg.svg"
   inkscape:export-filename="C:\Users\Tate\Desktop\codered\codered-icon.png"
   inkscape:export-xdpi="96"
   inkscape:export-ydpi="96">
  <defs
     id="defs2">
    <linearGradient
       inkscape:collect="always"
       id="linearGradient844">
      <stop
         style="stop-color:#ffffff;stop-opacity:1;"
         offset="0"
         id="stop840" />
      <stop
         style="stop-color:#ffffff;stop-opacity:0;"
         offset="1"
         id="stop842" />
    </linearGradient>
    <linearGradient
       inkscape:collect="always"
       xlink:href="#linearGradient844"
       id="linearGradient846"
       x1="309.04886"
       y1="-69.091667"
       x2="82.380859"
       y2="171.62262"
       gradientUnits="userSpaceOnUse" />
  </defs>
  <sodipodi:namedview
     id="base"
     pagecolor="#ffffff"
     bordercolor="#666666"
     borderopacity="1.0"
     inkscape:pageopacity="0.0"
     inkscape:pageshadow="2"
     inkscape:zoom="2.8284271"
     inkscape:cx="94.422446"
     inkscape:cy="157.13876"
     inkscape:document-units="mm"
     inkscape:current-layer="layer1"
     showgrid="false"
     units="px"
     inkscape:window-width="3840"
     inkscape:window-height="2056"
     inkscape:window-x="-8"
     inkscape:window-y="-8"
     inkscape:window-maximized="1"
     inkscape:snap-global="false" />
  <metadata
     id="metadata5">
    <rdf:RDF>
      <cc:Work
         rdf:about="">
        <dc:format>image/svg+xml</dc:format>
        <dc:type
           rdf:resource="http://purl.org/dc/dcmitype/StillImage" />
        <dc:title></dc:title>
      </cc:Work>
    </rdf:RDF>
  </metadata>
  <g
     inkscape:label="Layer 1"
     inkscape:groupmode="layer"
     id="layer1"
     transform="translate(0,-229.26665)">
    <circle
       style="opacity:1;fill:#1a1a1a;fill-opacity:1;stroke:#ff0000;stroke-width:1.05833333;stroke-miterlimit:4;stroke-dasharray:none;stroke-opacity:1"
       id="path815"
       cx="33.866665"
       cy="263.13333"
       r="32.909351" />
    <text
       xml:space="preserve"
       style="font-style:normal;font-variant:normal;font-weight:bold;font-stretch:normal;font-size:33.19809341px;line-height:1.25;font-family:sans-serif;-inkscape-font-specification:'sans-serif Bold';letter-spacing:0px;word-spacing:0px;fill:#ffffff;fill-opacity:1;stroke:none;stroke-width:0.8299523"
       x="12.064382"
       y="266.99664"
       id="text819"><tspan
         sodipodi:role="line"
         x="12.064382"
         y="266.99664"
         style="font-style:normal;font-variant:normal;font-weight:bold;font-stretch:normal;font-family:sans-serif;-inkscape-font-specification:'sans-serif Bold';fill:#ffffff;stroke-width:0.8299523"
         id="tspan821">C</tspan></text>
    <text
       id="text827"
       y="284.65265"
       x="27.738791"
       style="font-style:normal;font-variant:normal;font-weight:bold;font-stretch:normal;font-size:33.19809341px;line-height:1.25;font-family:sans-serif;-inkscape-font-specification:'sans-serif Bold';letter-spacing:0px;word-spacing:0px;fill:#ffffff;fill-opacity:1;stroke:none;stroke-width:1.32291667;stroke-miterlimit:4;stroke-dasharray:none;"
       xml:space="preserve"><tspan
         id="tspan825"
         style="font-style:normal;font-variant:normal;font-weight:bold;font-stretch:normal;font-family:sans-serif;-inkscape-font-specification:'sans-serif Bold';fill:#ffffff;stroke-width:1.32291667;stroke:none;stroke-miterlimit:4;stroke-dasharray:none;"
         y="284.65265"
         x="27.738791"
         sodipodi:role="line">R</tspan></text>
    <path
       style="opacity:1;fill:url(#linearGradient846);fill-opacity:1;stroke:none;stroke-width:1.23639655;stroke-miterlimit:4;stroke-dasharray:none;stroke-opacity:1"
       d="M 128,3.6191406 C 89.128625,3.6799535 52.520808,21.909798 29.048828,52.894531 169.66451,37.375112 62.51739,247.60807 242.64453,176.21484 249.06714,160.95158 252.3773,144.5595 252.38086,128 252.38034,59.306563 196.69344,3.6196597 128,3.6191406 Z"
       transform="matrix(0.26458333,0,0,0.26458333,0,229.26665)"
       id="circle833"
       inkscape:connector-curvature="0"
       sodipodi:nodetypes="ccccc" />
    <path
       style="opacity:1;fill:#ff0000;fill-opacity:1;stroke:none;stroke-width:0.01503508;stroke-linecap:round;stroke-miterlimit:4;stroke-dasharray:none;stroke-opacity:1"
       d="m 48.519551,196.69935 c -0.01869,-0.0698 -0.210439,-0.10604 -0.238723,-4.8e-4 -0.850432,11.01312 -1.711322,22.21007 -2.437772,31.63583 -0.462154,-0.70259 -0.924306,-1.40518 -1.38646,-2.10777 1.6e-4,-2.4e-4 2.39e-4,-7.2e-4 4.79e-4,-9.6e-4 -2.4e-4,-1.6e-4 -7.19e-4,-2.4e-4 -9.58e-4,-4.8e-4 l -9.59e-4,-9.6e-4 c -2.4e-4,1.6e-4 -7.19e-4,2.4e-4 -9.59e-4,4.8e-4 -0.835527,-0.2239 -1.671054,-0.4478 -2.506581,-0.6717 -0.674195,-1.34636 -1.321241,-2.61689 -1.995435,-3.96325 -0.03882,-0.0473 -0.185533,-0.0622 -0.238722,0.03 -0.605275,1.19375 -1.354132,2.69883 -2.00387,3.9974 h -2.342752 c -4.79e-4,-1.6e-4 -9.35e-4,-2.4e-4 -0.0014,-4.8e-4 -0.258,0.88096 -0.51641,1.76189 -0.774676,2.6428 l -0.795272,-2.70972 c -2.631677,0.003 -5.264412,0.001 -7.896471,0.001 v 0.23966 h 7.717741 c 0.286934,0.97861 0.573869,1.95721 0.860803,2.93582 0.06726,0.0731 0.145015,0.0736 0.218138,0.0272 l 0.849569,-2.89697 h 2.305305 c 0.667756,-1.30542 1.332563,-2.64733 1.994031,-3.9684 0.645486,1.28878 1.290971,2.57757 1.936457,3.86636 3.11e-4,-1.6e-4 6.23e-4,-2.4e-4 9.34e-4,-4.8e-4 0.835142,0.22886 1.683091,0.45357 2.523421,0.67877 l 1.50629,2.3011 c 0.04985,0.0863 0.222189,0.0768 0.240629,0.008 0.781542,-10.13945 1.563081,-20.27889 2.344623,-30.41833 1.085484,15.06367 2.170965,30.12733 3.256448,45.191 0.02202,0.0822 0.21598,0.089 0.239203,0.002 0.520976,-5.89518 1.04195,-11.79037 1.562926,-17.68555 1.510275,-0.009 3.090154,0.016 4.574106,-0.008 1.505819,-1.83628 3.011642,-3.67257 4.517462,-5.50886 1.467906,1.78995 2.935812,3.5799 4.403718,5.36984 1.61e-4,2.4e-4 2.4e-4,7.2e-4 4.79e-4,9.6e-4 2.631001,-0.002 5.263931,-9.6e-4 7.895634,-9.6e-4 v -0.23965 h -7.782805 c -1.45664,-1.77624 -2.913279,-3.55247 -4.369919,-5.32871 -0.118957,-0.12492 -0.170817,-0.10304 -0.299623,0.0123 -1.494329,1.81079 -2.991818,3.6428 -4.484692,5.4634 -1.557924,-4.7e-4 -3.11592,9.6e-4 -4.673805,-4.7e-4 l -1.450121,16.40862 c -1.088817,-15.09963 -2.177618,-30.19999 -3.266421,-45.30035 z"
       id="rect974"
       inkscape:connector-curvature="0"
       sodipodi:nodetypes="cccccccccccccccccccccccccccccccccccccccccccccc" />
  </g>
</svg>
