<?xml version="1.0" encoding="UTF-8" standalone="no"?>
<!-- Created with Inkscape (http://www.inkscape.org/) -->

<svg
   xmlns:dc="http://purl.org/dc/elements/1.1/"
   xmlns:cc="http://creativecommons.org/ns#"
   xmlns:rdf="http://www.w3.org/1999/02/22-rdf-syntax-ns#"
   xmlns:svg="http://www.w3.org/2000/svg"
   xmlns="http://www.w3.org/2000/svg"
   xmlns:xlink="http://www.w3.org/1999/xlink"
   xmlns:sodipodi="http://sodipodi.sourceforge.net/DTD/sodipodi-0.dtd"
   xmlns:inkscape="http://www.inkscape.org/namespaces/inkscape"
   width="256"
   height="256"
   viewBox="0 0 67.733332 67.733335"
   version="1.1"
   id="svg8"
   inkscape:version="0.92.3 (2405546, 2018-03-11)"
   sodipodi:docname="codered-icon.svg"
   inkscape:export-filename="C:\Users\Tate\Desktop\codered\codered-icon.png"
   inkscape:export-xdpi="720"
   inkscape:export-ydpi="720">
  <defs
     id="defs2">
    <linearGradient
       inkscape:collect="always"
       id="linearGradient844">
      <stop
         style="stop-color:#ffffff;stop-opacity:1;"
         offset="0"
         id="stop840" />
      <stop
         style="stop-color:#ffffff;stop-opacity:0;"
         offset="1"
         id="stop842" />
    </linearGradient>
    <linearGradient
       inkscape:collect="always"
       xlink:href="#linearGradient844"
       id="linearGradient846"
       x1="309.04886"
       y1="-69.091667"
       x2="82.380859"
       y2="171.62262"
       gradientUnits="userSpaceOnUse" />
  </defs>
  <sodipodi:namedview
     id="base"
     pagecolor="#ffffff"
     bordercolor="#666666"
     borderopacity="1.0"
     inkscape:pageopacity="0.0"
     inkscape:pageshadow="2"
     inkscape:zoom="1"
     inkscape:cx="592.12067"
     inkscape:cy="243.18153"
     inkscape:document-units="mm"
     inkscape:current-layer="layer1"
     showgrid="false"
     units="px"
     inkscape:window-width="2212"
     inkscape:window-height="1119"
     inkscape:window-x="1560"
     inkscape:window-y="203"
     inkscape:window-maximized="0"
     inkscape:snap-global="false"
     showguides="true" />
  <metadata
     id="metadata5">
    <rdf:RDF>
      <cc:Work
         rdf:about="">
        <dc:format>image/svg+xml</dc:format>
        <dc:type
           rdf:resource="http://purl.org/dc/dcmitype/StillImage" />
        <dc:title />
      </cc:Work>
    </rdf:RDF>
  </metadata>
  <g
     inkscape:label="Layer 1"
     inkscape:groupmode="layer"
     id="layer1"
     transform="translate(0,-229.26665)">
    <circle
       style="opacity:1;fill:#000000;fill-opacity:1;stroke:#ff0000;stroke-width:1.05833333;stroke-miterlimit:4;stroke-dasharray:none;stroke-opacity:1"
       id="path815"
       cx="33.866665"
       cy="263.13333"
       r="32.909351" />
    <path
       style="opacity:1;fill:#ff0000;fill-opacity:1;stroke:none;stroke-width:0.01503508;stroke-linecap:round;stroke-miterlimit:4;stroke-dasharray:none;stroke-opacity:1"
       d="m 31.575076,239.51918 c -0.839457,10.871 -1.686095,21.95171 -2.406571,31.30064 -0.37261,-0.56647 -0.745148,-1.13266 -1.117761,-1.69913 1.61e-4,-2.3e-4 2.64e-4,-7.9e-4 5.29e-4,-0.001 -2.38e-4,-1.7e-4 -7.94e-4,-2.7e-4 -0.0011,-5.3e-4 l -0.0011,-0.001 c -2.4e-4,1.6e-4 -7.93e-4,2.6e-4 -0.0011,5.3e-4 l -2.506308,-0.6718 c -0.674195,-1.34636 -1.321551,-2.6167 -1.995744,-3.96306 -0.119752,-0.11975 -0.430215,-0.0783 -0.538469,0.03 -0.605275,1.19375 -1.354273,2.6986 -2.00401,3.99717 -0.780963,-5.3e-4 -1.564534,0 -2.343084,0 -5.29e-4,-1.6e-4 -5.29e-4,-2.6e-4 -0.0011,-5.3e-4 -0.208103,0.71059 -0.416423,1.4211 -0.624769,2.13165 l -0.645438,-2.19831 c -1.827591,0.001 -3.768783,7.9e-4 -5.35523,5.3e-4 -0.88048,-1.9e-4 -1.760786,5.3e-4 -2.6411813,5.3e-4 h -0.199988 c 0,0.37155 0.0024,0.23674 0.0024,0.63923 h 0.397652 7.4176353 c 0.286933,0.97862 0.573995,1.95765 0.860928,2.93626 0.180025,0.0904 0.344128,0.0735 0.518311,0.0269 l 0.849561,-2.89698 h 2.104779 0.200507 c 0.617397,-1.20698 1.232283,-2.44395 1.844331,-3.668 0.59536,1.1887 1.190577,2.37748 1.785937,3.56619 2.65e-4,-1.6e-4 7.94e-4,-2.6e-4 0.0011,-5.3e-4 0.835142,0.22887 1.683031,0.45332 2.523361,0.67852 l 1.506368,2.30115 c 0.180438,0.10298 0.414628,0.081 0.540533,0.008 0.717627,-9.31021 1.435216,-18.62039 2.152841,-27.93059 0.811315,14.91388 2.456119,29.91489 3.063369,42.70334 0.04993,0.18634 0.532948,0.16014 0.62425,0.002 0.520978,-5.89518 1.04172,-11.79056 1.562695,-17.68574 1.531345,-0.007 3.065092,0.0155 4.5744,-0.008 1.455833,-1.77533 2.911855,-3.55044 4.367691,-5.32578 1.417851,1.72892 2.835636,3.45786 4.253487,5.18677 1.61e-4,2.4e-4 2.64e-4,7.9e-4 5.29e-4,10e-4 1.832112,-7.9e-4 3.777877,-7.9e-4 5.368148,-5.2e-4 0.842589,8e-5 1.685053,-5.3e-4 2.527494,-5.3e-4 h 0.299723 c 0,-0.38824 -5.29e-4,-0.23518 -5.29e-4,-0.63924 h -7.882206 c -1.45664,-1.77624 -2.913119,-3.55263 -4.369759,-5.32887 -0.222093,-0.13366 -0.456531,-0.13104 -0.599963,0.0124 -1.494329,1.81079 -2.991607,3.64264 -4.484481,5.46324 -1.662325,5.3e-4 -3.226383,-8e-4 -4.673616,-5.3e-4 l -1.246436,14.09733 c -0.946301,-15.03704 -2.328278,-30.13161 -3.097988,-43.04699 -0.05517,-0.20592 -0.556763,-0.21713 -0.610735,-0.0157 z"
       id="path918"
       inkscape:connector-curvature="0"
       sodipodi:nodetypes="ccccccccccccccccccccccccccccccccccccccccccccccccccccc" />
    <path
       style="opacity:1;fill:#ff0000;fill-opacity:1;stroke:none;stroke-width:0.01503508;stroke-linecap:round;stroke-miterlimit:4;stroke-dasharray:none;stroke-opacity:1"
       d="m 44.310056,175.37124 c -0.01869,-0.0698 -0.210439,-0.10604 -0.238723,-4.8e-4 -0.850432,11.01312 -1.711322,22.21007 -2.437772,31.63583 -0.462154,-0.70259 -0.924306,-1.40518 -1.38646,-2.10777 1.6e-4,-2.4e-4 2.39e-4,-7.2e-4 4.79e-4,-9.6e-4 -2.4e-4,-1.6e-4 -7.19e-4,-2.4e-4 -9.58e-4,-4.8e-4 l -9.59e-4,-9.6e-4 c -2.4e-4,1.6e-4 -7.19e-4,2.4e-4 -9.59e-4,4.8e-4 -0.835527,-0.2239 -1.671054,-0.4478 -2.506581,-0.6717 -0.674195,-1.34636 -1.321241,-2.61689 -1.995435,-3.96325 -0.03882,-0.0473 -0.185533,-0.0622 -0.238722,0.03 -0.605275,1.19375 -1.354132,2.69883 -2.00387,3.9974 h -2.342752 c -4.79e-4,-1.6e-4 -9.35e-4,-2.4e-4 -0.0014,-4.8e-4 -0.258,0.88096 -0.51641,1.76189 -0.774676,2.6428 l -0.795272,-2.70972 c -2.631677,0.003 -5.264412,0.001 -7.896471,0.001 v 0.23966 h 7.717741 c 0.286934,0.97861 0.573869,1.95721 0.860803,2.93582 0.06726,0.0731 0.145015,0.0736 0.218138,0.0272 l 0.849569,-2.89697 h 2.305305 c 0.667756,-1.30542 1.332563,-2.64733 1.994031,-3.9684 0.645486,1.28878 1.290971,2.57757 1.936457,3.86636 3.11e-4,-1.6e-4 6.23e-4,-2.4e-4 9.34e-4,-4.8e-4 0.835142,0.22886 1.683091,0.45357 2.523421,0.67877 l 1.50629,2.3011 c 0.04985,0.0863 0.222189,0.0768 0.240629,0.008 0.781542,-10.13945 1.563081,-20.27889 2.344623,-30.41833 1.085484,15.06367 2.170965,30.12733 3.256448,45.191 0.02202,0.0822 0.21598,0.089 0.239203,0.002 0.520976,-5.89518 1.04195,-11.79037 1.562926,-17.68555 1.510275,-0.009 3.090154,0.016 4.574106,-0.008 1.505819,-1.83628 3.011642,-3.67257 4.517462,-5.50886 1.467906,1.78995 2.935812,3.5799 4.403718,5.36984 1.61e-4,2.4e-4 2.4e-4,7.2e-4 4.79e-4,9.6e-4 2.631001,-0.002 5.263931,-9.6e-4 7.895634,-9.6e-4 v -0.23965 h -7.782805 c -1.45664,-1.77624 -2.913279,-3.55247 -4.369919,-5.32871 -0.118957,-0.12492 -0.170817,-0.10304 -0.299623,0.0123 -1.494329,1.81079 -2.991818,3.6428 -4.484692,5.4634 -1.557924,-4.7e-4 -3.11592,9.6e-4 -4.673805,-4.7e-4 L 47.576477,220.6716 C 46.48766,205.57197 45.398859,190.47161 44.310056,175.37125 Z"
       id="rect974"
       inkscape:connector-curvature="0"
       sodipodi:nodetypes="cccccccccccccccccccccccccccccccccccccccccccccc" />
    <path
       style="font-style:normal;font-variant:normal;font-weight:bold;font-stretch:normal;font-size:33.19809341px;line-height:1.25;font-family:sans-serif;-inkscape-font-specification:'sans-serif Bold';letter-spacing:0px;word-spacing:0px;fill:#ffffff;fill-opacity:1;stroke:none;stroke-width:3.13682771"
       d="M 101.41211 49.476562 C 86.177256 49.476562 74.107141 53.744831 65.203125 62.28125 C 56.299109 70.776825 51.847656 82.336794 51.847656 96.958984 C 51.847656 111.54033 56.299109 123.09835 65.203125 131.63477 C 70.076287 136.28438 75.911882 139.64167 82.681641 141.74609 C 84.154161 138.80127 85.665526 135.76396 86.957031 133.2168 C 87.36618 132.80747 88.539582 132.65092 88.992188 133.10352 C 90.853252 136.82005 92.670063 140.40908 94.501953 144.04297 C 96.73204 144.25289 99.025803 144.37891 101.41211 144.37891 C 104.79233 144.37891 108.0765 144.11144 111.27734 143.60938 C 111.69075 138.23459 112.17958 131.89331 112.60938 126.29688 C 109.61268 126.94408 106.51662 127.28516 103.31055 127.28516 C 94.896657 127.28516 88.280542 124.58869 83.460938 119.19727 C 78.641332 113.80584 76.230469 106.39397 76.230469 96.958984 C 76.230469 87.483151 78.641332 80.049626 83.460938 74.658203 C 88.280542 69.26678 94.896657 66.570312 103.31055 66.570312 C 108.00762 66.570312 112.48073 67.263644 116.72852 68.652344 C 116.82978 68.685449 116.93179 68.722921 117.0332 68.757812 C 117.48536 62.87783 117.88113 57.701118 118.33594 51.798828 C 117.59881 51.587715 116.86224 51.375239 116.11523 51.193359 C 111.41816 50.049724 106.51762 49.476562 101.41211 49.476562 z M 122.5625 53.164062 C 122.96316 59.241559 123.38975 65.423922 123.83984 71.703125 C 125.76602 72.716177 127.70367 73.878186 129.6543 75.208984 L 129.6543 56.277344 C 127.34379 55.078497 124.97776 54.048147 122.5625 53.164062 z M 120.5625 56.082031 C 120.21278 60.619134 119.86339 65.156259 119.51367 69.693359 C 120.14769 69.951304 120.78321 70.226485 121.41992 70.519531 C 121.11661 65.707806 120.82429 60.894365 120.5625 56.082031 z M 129.6543 118.64648 C 128.92386 119.14482 128.19725 119.59707 127.4707 120.04883 C 127.92575 125.95466 128.37577 132.00403 128.83203 137.98828 C 129.10605 137.8518 129.38163 137.71961 129.6543 137.57812 L 129.6543 118.64648 z M 125.15039 121.42383 C 122.31711 123.01689 119.50941 124.29203 116.72852 125.20117 C 116.22494 125.3658 115.71189 125.50159 115.20117 125.64453 C 114.75155 131.47788 114.30119 137.31118 113.85156 143.14453 C 114.60937 142.99272 115.3682 142.84399 116.11523 142.66211 C 119.71345 141.78602 123.19781 140.56883 126.58008 139.04492 C 126.10445 133.21598 125.62547 127.33296 125.15039 121.42383 z M 88.398438 136.87891 C 87.45526 138.76519 86.50916 140.65926 85.5625 142.55078 C 87.576879 143.0533 89.667722 143.45263 91.837891 143.74609 C 90.691555 141.45696 89.54491 139.16796 88.398438 136.87891 z "
       id="path883"
       transform="matrix(0.26458333,0,0,0.26458333,0,229.26665)" />
    <path
       style="font-style:italic;font-variant:normal;font-weight:bold;font-stretch:normal;font-size:34.29336929px;line-height:1.25;font-family:sans-serif;-inkscape-font-specification:'sans-serif Bold Italic';letter-spacing:0px;word-spacing:0px;fill:#ffffff;fill-opacity:1;stroke:none;stroke-width:3.2403183"
       d="M 129.57031 118.59766 L 127.97852 126.75586 C 129.86316 151.26139 131.77254 176.35264 133.35547 201.50586 L 138.06641 148.22461 C 141.20655 148.22402 144.78911 148.22564 148.20703 148.22656 L 150.58203 136.25391 L 160.64453 136.25391 C 162.37392 136.25391 163.90079 136.3857 165.24609 136.63477 C 167.72518 133.6127 170.20254 130.57987 172.67969 127.57812 C 173.22179 127.03599 174.10786 127.02608 174.94727 127.53125 C 180.45268 134.2446 185.95748 140.95853 191.46289 147.67188 L 196.71484 147.67188 C 197.04732 145.74221 197.22461 143.71273 197.22461 141.57031 C 197.22461 134.01801 194.54584 128.30155 189.1875 124.41992 C 183.82916 120.53829 175.95922 118.59766 165.58008 118.59766 L 129.57031 118.59766 z M 174.20312 130.48438 C 172.26242 132.851 170.32168 135.21751 168.38086 137.58398 C 168.93855 137.8434 169.44462 138.13582 169.88477 138.4707 C 171.86777 139.90522 172.85742 142.18251 172.85742 145.30469 C 172.85742 150.2833 171.42372 154.05912 168.55469 156.63281 C 165.72785 159.2065 161.55054 160.49414 156.02344 160.49414 L 145.77148 160.49414 L 147.72461 150.65039 C 145.28789 150.64329 142.84735 150.63337 140.40625 150.64453 C 138.56689 171.4581 136.72794 192.27228 134.88867 213.08594 L 135.51953 213.08594 L 142.54297 177.32812 L 150.32812 177.32812 C 154.20976 177.32813 157.1623 178.21428 159.1875 179.98633 C 161.25489 181.71619 163.00689 184.9222 164.44141 189.60547 L 171.5293 213.08594 L 195.76758 213.08594 L 187.73047 186.25195 C 186.08499 180.72485 184.16662 176.63268 181.97266 173.97461 C 179.77869 171.27434 177.03509 169.58718 173.74414 168.91211 C 180.95891 168.19485 186.67537 165.36611 190.89453 160.42969 C 193.42279 157.47163 195.17881 154.01994 196.19141 150.0918 C 194.14524 150.09221 192.29835 150.09093 190.28125 150.0918 C 190.28025 150.091 190.27991 150.0888 190.2793 150.08789 C 184.92049 143.55343 179.56193 137.01888 174.20312 130.48438 z M 126.28711 135.44336 L 111.15234 213.08594 L 131.91211 213.08594 C 130.65926 188.84861 128.503 162.61009 126.28711 135.44336 z "
       id="text895"
       transform="matrix(0.26458333,0,0,0.26458333,0,229.26665)" />
    <g
       id="g908"
       style="fill:#ffffff;fill-opacity:1;opacity:0.5">
      <text
         id="text887"
         y="266.99701"
         x="12.064088"
         style="font-style:normal;font-variant:normal;font-weight:bold;font-stretch:normal;font-size:33.19902039px;line-height:1.25;font-family:sans-serif;-inkscape-font-specification:'sans-serif Bold';letter-spacing:0px;word-spacing:0px;fill:#ffffff;fill-opacity:1;stroke:none;stroke-width:0.82997543"
         xml:space="preserve"><tspan
           style="font-style:normal;font-variant:normal;font-weight:bold;font-stretch:normal;font-family:sans-serif;-inkscape-font-specification:'sans-serif Bold';stroke-width:0.82997543;fill:#ffffff;fill-opacity:1"
           y="266.99701"
           x="12.064088"
           id="tspan885"
           sodipodi:role="line">C</tspan></text>
      <text
         id="text891"
         y="285.6456"
         x="28.689226"
         style="font-style:italic;font-variant:normal;font-weight:bold;font-stretch:normal;font-size:34.29336929px;line-height:1.25;font-family:sans-serif;-inkscape-font-specification:'sans-serif Bold Italic';letter-spacing:0px;word-spacing:0px;fill:#ffffff;fill-opacity:1;stroke:none;stroke-width:0.8573342"
         xml:space="preserve"><tspan
           style="font-style:italic;font-variant:normal;font-weight:bold;font-stretch:normal;font-family:sans-serif;-inkscape-font-specification:'sans-serif Bold Italic';stroke-width:0.8573342;fill:#ffffff;fill-opacity:1"
           y="285.6456"
           x="28.689226"
           id="tspan889"
           sodipodi:role="line">R</tspan></text>
    </g>
    <path
       style="opacity:1;fill:url(#linearGradient846);fill-opacity:1;stroke:none;stroke-width:1.23639655;stroke-miterlimit:4;stroke-dasharray:none;stroke-opacity:1"
       d="M 128,3.6191406 C 89.128625,3.6799535 52.520808,21.909798 29.048828,52.894531 169.66451,37.375112 62.51739,247.60807 242.64453,176.21484 249.06714,160.95158 252.3773,144.5595 252.38086,128 252.38034,59.306563 196.69344,3.6196597 128,3.6191406 Z"
       id="circle833"
       inkscape:connector-curvature="0"
       sodipodi:nodetypes="ccccc"
       transform="matrix(0.26458333,0,0,0.26458333,0,229.26665)" />
  </g>
</svg>
