<?xml version="1.0" encoding="UTF-8" standalone="no"?>
<!-- Created with Inkscape (http://www.inkscape.org/) -->

<svg
   xmlns:dc="http://purl.org/dc/elements/1.1/"
   xmlns:cc="http://creativecommons.org/ns#"
   xmlns:rdf="http://www.w3.org/1999/02/22-rdf-syntax-ns#"
   xmlns:svg="http://www.w3.org/2000/svg"
   xmlns="http://www.w3.org/2000/svg"
   xmlns:xlink="http://www.w3.org/1999/xlink"
   xmlns:sodipodi="http://sodipodi.sourceforge.net/DTD/sodipodi-0.dtd"
   xmlns:inkscape="http://www.inkscape.org/namespaces/inkscape"
   width="761"
   height="445"
   viewBox="0 0 201.34791 117.73959"
   version="1.1"
   id="svg945"
   inkscape:version="0.92.3 (2405546, 2018-03-11)"
   sodipodi:docname="splash.svg">
  <defs
     id="defs939">
    <linearGradient
       inkscape:collect="always"
       id="linearGradient1547">
      <stop
         style="stop-color:#ffffff;stop-opacity:1;"
         offset="0"
         id="stop1543" />
      <stop
         style="stop-color:#ffffff;stop-opacity:0;"
         offset="1"
         id="stop1545" />
    </linearGradient>
    <linearGradient
       inkscape:collect="always"
       xlink:href="#linearGradient1547"
       id="linearGradient1549"
       x1="362.52429"
       y1="-404.98651"
       x2="404.02429"
       y2="351.94202"
       gradientUnits="userSpaceOnUse" />
  </defs>
  <sodipodi:namedview
     id="base"
     pagecolor="#ffffff"
     bordercolor="#666666"
     borderopacity="1.0"
     inkscape:pageopacity="0.0"
     inkscape:pageshadow="2"
     inkscape:zoom="1.4142136"
     inkscape:cx="476.98288"
     inkscape:cy="136.58352"
     inkscape:document-units="px"
     inkscape:current-layer="layer1"
     showgrid="false"
     units="px"
     inkscape:window-width="3840"
     inkscape:window-height="2056"
     inkscape:window-x="-8"
     inkscape:window-y="-8"
     inkscape:window-maximized="1" />
  <metadata
     id="metadata942">
    <rdf:RDF>
      <cc:Work
         rdf:about="">
        <dc:format>image/svg+xml</dc:format>
        <dc:type
           rdf:resource="http://purl.org/dc/dcmitype/StillImage" />
        <dc:title></dc:title>
      </cc:Work>
    </rdf:RDF>
  </metadata>
  <g
     inkscape:label="Layer 1"
     inkscape:groupmode="layer"
     id="layer1"
     transform="translate(0,-179.2604)">
    <rect
       style="opacity:1;fill:#000000;fill-opacity:1;stroke:none;stroke-width:0.22136793;stroke-miterlimit:4;stroke-dasharray:none;stroke-opacity:1"
       id="rect1493"
       width="201.34792"
       height="117.73959"
       x="1.6921467e-006"
       y="179.26039"
       rx="0"
       ry="0" />
    <g
       id="g1507"
       transform="translate(15.809365,1.2409839)">
      <text
         id="text1497"
         y="237.5321"
         x="20.029924"
         style="font-style:normal;font-variant:normal;font-weight:bold;font-stretch:normal;font-size:25.39999962px;line-height:1.25;font-family:sans-serif;-inkscape-font-specification:'sans-serif Bold';letter-spacing:0px;word-spacing:0px;fill:#ffffff;fill-opacity:1;stroke:none;stroke-width:0.26458335"
         xml:space="preserve"><tspan
           style="font-style:normal;font-variant:normal;font-weight:bold;font-stretch:normal;font-size:25.39999962px;font-family:sans-serif;-inkscape-font-specification:'sans-serif Bold';fill:#ffffff;stroke-width:0.26458335"
           y="237.5321"
           x="20.029924"
           id="tspan1495"
           sodipodi:role="line">Code</tspan></text>
      <text
         xml:space="preserve"
         style="font-style:italic;font-variant:normal;font-weight:bold;font-stretch:normal;font-size:29.98611069px;line-height:1.25;font-family:sans-serif;-inkscape-font-specification:'sans-serif Bold Italic';letter-spacing:0px;word-spacing:0px;fill:#ffffff;fill-opacity:1;stroke:none;stroke-width:0.26458335"
         x="84.786949"
         y="255.11975"
         id="text1501"><tspan
           sodipodi:role="line"
           id="tspan1499"
           x="84.786949"
           y="255.11975"
           style="font-style:italic;font-variant:normal;font-weight:bold;font-stretch:normal;font-size:29.98611069px;font-family:sans-serif;-inkscape-font-specification:'sans-serif Bold Italic';fill:#ffffff;stroke-width:0.26458335">Red</tspan></text>
    </g>
    <path
       style="opacity:1;fill:#ff0000;fill-opacity:1;stroke:none;stroke-width:0.01773477;stroke-linecap:round;stroke-miterlimit:4;stroke-dasharray:none;stroke-opacity:1"
       d="m 63.715398,211.55353 c -0.990181,12.82299 -1.988843,25.89334 -2.838692,36.92096 -0.439515,-0.66819 -0.878948,-1.33604 -1.318464,-2.00423 1.89e-4,-2.7e-4 3.19e-4,-9.3e-4 6.25e-4,-0.001 -2.83e-4,-2.1e-4 -9.31e-4,-3.2e-4 -0.0012,-6.2e-4 l -0.0012,-0.001 c -2.83e-4,1.9e-4 -9.31e-4,3e-4 -0.0012,6.2e-4 l -2.956341,-0.79242 c -0.795247,-1.58812 -1.558847,-3.08656 -2.354094,-4.67467 -0.141252,-0.14125 -0.50747,-0.0924 -0.635157,0.0354 -0.713964,1.4081 -1.597442,3.18316 -2.363849,4.7149 -0.921188,-6.3e-4 -1.845455,0 -2.763801,0 -6.25e-4,-1.9e-4 -6.25e-4,-3.1e-4 -0.0012,-6.3e-4 -0.245478,0.83818 -0.491204,1.67627 -0.736953,2.51441 l -0.761335,-2.59304 c -2.15575,0.001 -4.445499,9.3e-4 -6.316811,6.3e-4 -1.038578,-2.3e-4 -2.076956,6.2e-4 -3.115428,6.2e-4 H 37.31441 c 0,0.43827 0.0024,0.27925 0.0024,0.75401 h 0.469052 8.749545 c 0.338451,1.15434 0.677056,2.30917 1.015507,3.46349 0.212356,0.10664 0.405921,0.0867 0.611389,0.0317 l 1.002106,-3.41715 h 2.482701 0.236513 c 0.72826,-1.42371 1.453559,-2.88279 2.175497,-4.32663 0.702262,1.40214 1.404359,2.80438 2.106622,4.20653 3.07e-4,-1.8e-4 9.32e-4,-3e-4 0.0012,-6.2e-4 0.985097,0.26996 1.985234,0.53472 2.976453,0.80035 l 1.776853,2.71435 c 0.212839,0.12147 0.48908,0.0955 0.637587,0.009 0.846487,-10.98194 1.692927,-21.96385 2.539402,-32.94578 0.957,17.5918 2.897139,35.28638 3.613426,50.37112 0.05886,0.2198 0.628646,0.18889 0.73634,0.002 0.614527,-6.95372 1.228771,-13.90767 1.843297,-20.86138 1.806307,-0.008 3.615456,0.0183 5.395776,-0.009 1.717238,-2.09411 3.4347,-4.18795 5.151949,-6.28207 1.672438,2.03936 3.344794,4.07875 5.017232,6.1181 2e-4,2.8e-4 3.18e-4,9.3e-4 6.25e-4,0.001 2.161094,-9.4e-4 4.456233,-9.4e-4 6.332051,-6.2e-4 0.993884,9e-5 1.987616,-6.3e-4 2.981336,-6.3e-4 h 0.353537 c 0,-0.45795 -6.25e-4,-0.27741 -6.25e-4,-0.75402 h -9.297534 c -1.718181,-2.09518 -3.436197,-4.19054 -5.15439,-6.28572 -0.261969,-0.15766 -0.538505,-0.15457 -0.707689,0.0146 -1.76265,2.13593 -3.528769,4.29671 -5.289709,6.44421 -1.960805,6.3e-4 -3.805707,-9.3e-4 -5.5128,-6.2e-4 l -1.47025,16.62863 c -1.116229,-17.73715 -2.746356,-35.54209 -3.654274,-50.77654 -0.06511,-0.2429 -0.656732,-0.25612 -0.720393,-0.0185 z"
       id="path918"
       inkscape:connector-curvature="0"
       sodipodi:nodetypes="ccccccccccccccccccccccccccccccccccccccccccccccccccccc" />
    <path
       sodipodi:nodetypes="ccccccccccccccccccccccccccccccccccccccccccccccccccccc"
       inkscape:connector-curvature="0"
       id="path1524"
       d="m 135.34363,211.42537 c -0.99018,12.82299 -1.98884,25.89334 -2.83869,36.92096 -0.43951,-0.66819 -0.87895,-1.33604 -1.31846,-2.00423 1.9e-4,-2.7e-4 3.2e-4,-9.3e-4 6.2e-4,-10e-4 -2.8e-4,-2.1e-4 -9.3e-4,-3.2e-4 -10e-4,-6.2e-4 l -0.001,-0.001 c -2.8e-4,1.9e-4 -9.3e-4,3e-4 -0.001,6.2e-4 l -2.95634,-0.79242 c -0.79525,-1.58812 -1.55885,-3.08656 -2.35409,-4.67467 -0.14126,-0.14125 -0.50747,-0.0924 -0.63516,0.0354 -0.71396,1.4081 -1.59744,3.18316 -2.36385,4.7149 -0.92119,-6.3e-4 -1.84545,0 -2.7638,0 -6.3e-4,-1.9e-4 -6.3e-4,-3.1e-4 -0.001,-6.3e-4 -0.24548,0.83818 -0.4912,1.67627 -0.73695,2.51441 l -0.76134,-2.59304 c -2.15575,0.001 -4.4455,9.3e-4 -6.31681,6.3e-4 -1.03858,-2.3e-4 -2.07696,6.2e-4 -3.11543,6.2e-4 h -0.23589 c 0,0.43827 0.002,0.27925 0.002,0.75401 h 0.46906 8.74954 c 0.33845,1.15434 0.67706,2.30917 1.01551,3.46349 0.21235,0.10664 0.40592,0.0867 0.61139,0.0317 l 1.0021,-3.41715 h 2.4827 0.23652 c 0.72826,-1.42371 1.45356,-2.88279 2.17549,-4.32663 0.70227,1.40214 1.40436,2.80438 2.10663,4.20653 3e-4,-1.8e-4 9.3e-4,-3e-4 10e-4,-6.2e-4 0.98509,0.26996 1.98523,0.53472 2.97645,0.80035 l 1.77685,2.71435 c 0.21284,0.12147 0.48908,0.0955 0.63759,0.009 0.84649,-10.98194 1.69293,-21.96385 2.5394,-32.94578 0.957,17.5918 2.89714,35.28638 3.61343,50.37112 0.0589,0.2198 0.62864,0.18889 0.73634,0.002 0.61452,-6.95372 1.22877,-13.90767 1.84329,-20.86138 1.80631,-0.008 3.61546,0.0183 5.39578,-0.009 1.71724,-2.09411 3.4347,-4.18795 5.15195,-6.28207 1.67244,2.03936 3.34479,4.07875 5.01723,6.1181 2e-4,2.8e-4 3.2e-4,9.3e-4 6.3e-4,0.001 2.16109,-9.4e-4 4.45623,-9.4e-4 6.33205,-6.2e-4 0.99388,9e-5 1.98761,-6.3e-4 2.98133,-6.3e-4 h 0.35354 c 0,-0.45795 -6.2e-4,-0.27741 -6.2e-4,-0.75402 h -9.29754 c -1.71818,-2.09518 -3.4362,-4.19054 -5.15439,-6.28572 -0.26197,-0.15766 -0.5385,-0.15457 -0.70769,0.0146 -1.76265,2.13593 -3.52877,4.29671 -5.28971,6.44421 -1.9608,6.3e-4 -3.8057,-9.3e-4 -5.5128,-6.2e-4 l -1.47025,16.62863 c -1.11623,-17.73715 -2.74635,-35.54209 -3.65427,-50.77654 -0.0651,-0.2429 -0.65673,-0.25612 -0.72039,-0.0185 z"
       style="opacity:1;fill:#ff0000;fill-opacity:1;stroke:none;stroke-width:0.01773477;stroke-linecap:round;stroke-miterlimit:4;stroke-dasharray:none;stroke-opacity:1" />
    <rect
       style="opacity:1;fill:#ff0000;fill-opacity:1;stroke:none;stroke-width:0.18455744;stroke-miterlimit:4;stroke-dasharray:none;stroke-opacity:1"
       id="rect1526"
       width="17.492701"
       height="0.75899595"
       x="91.722282"
       y="245.54102"
       rx="0"
       ry="0" />
    <g
       transform="translate(15.809365,1.2409839)"
       id="g1536"
       style="fill:#ffffff;opacity:0.4">
      <text
         xml:space="preserve"
         style="font-style:normal;font-variant:normal;font-weight:bold;font-stretch:normal;font-size:25.39999962px;line-height:1.25;font-family:sans-serif;-inkscape-font-specification:'sans-serif Bold';letter-spacing:0px;word-spacing:0px;fill:#ffffff;fill-opacity:1;stroke:none;stroke-width:0.26458335"
         x="20.029924"
         y="237.5321"
         id="text1530"><tspan
           sodipodi:role="line"
           id="tspan1528"
           x="20.029924"
           y="237.5321"
           style="font-style:normal;font-variant:normal;font-weight:bold;font-stretch:normal;font-size:25.39999962px;font-family:sans-serif;-inkscape-font-specification:'sans-serif Bold';fill:#ffffff;stroke-width:0.26458335">Code</tspan></text>
      <text
         id="text1534"
         y="255.11975"
         x="84.786949"
         style="font-style:italic;font-variant:normal;font-weight:bold;font-stretch:normal;font-size:29.98611069px;line-height:1.25;font-family:sans-serif;-inkscape-font-specification:'sans-serif Bold Italic';letter-spacing:0px;word-spacing:0px;fill:#ffffff;fill-opacity:1;stroke:none;stroke-width:0.26458335"
         xml:space="preserve"><tspan
           style="font-style:italic;font-variant:normal;font-weight:bold;font-stretch:normal;font-size:29.98611069px;font-family:sans-serif;-inkscape-font-specification:'sans-serif Bold Italic';fill:#ffffff;stroke-width:0.26458335"
           y="255.11975"
           x="84.786949"
           id="tspan1532"
           sodipodi:role="line">Red</tspan></text>
    </g>
    <path
       style="opacity:1;fill:url(#linearGradient1549);fill-opacity:1;stroke:none;stroke-width:0.83666617;stroke-miterlimit:4;stroke-dasharray:none;stroke-opacity:1"
       d="m 0,0 c 0,76.666667 0,153.33333 0,230 210.62621,-364.8153 582.7462,178.2538 761,0 0,-76.66667 0,-153.333333 0,-230 C 507.33333,0 253.66667,0 0,0 Z"
       transform="matrix(0.26458334,0,0,0.26458334,0,179.2604)"
       id="rect1540"
       inkscape:connector-curvature="0"
       sodipodi:nodetypes="ccccc" />
  </g>
</svg>
